<?xml version="1.0" standalone="no"?>
<!DOCTYPE svg PUBLIC "-//W3C//DTD SVG 20010904//EN"
 "http://www.w3.org/TR/2001/REC-SVG-20010904/DTD/svg10.dtd">
<svg version="1.0" xmlns="http://www.w3.org/2000/svg"
 width="512.000000pt" height="512.000000pt" viewBox="0 0 512.000000 512.000000"
 preserveAspectRatio="xMidYMid meet">
<metadata>
Created by potrace 1.16, written by Peter Selinger 2001-2019
</metadata>
<g transform="translate(0.000000,512.000000) scale(0.100000,-0.100000)"
fill="#ffffff" stroke="none">
<path d="M2245 4814 c-121 -16 -299 -61 -417 -104 -70 -25 -86 -35 -81 -48 4
-9 8 -11 10 -5 3 7 11 9 20 6 12 -5 14 -3 8 7 -5 8 -4 11 3 6 6 -4 20 -1 31 6
15 9 23 10 32 1 9 -9 25 -6 68 10 31 12 58 25 59 29 2 5 8 6 12 3 5 -3 41 4
81 15 40 11 118 26 173 34 145 21 462 22 496 1 5 -3 19 -3 31 0 11 4 25 2 32
-3 7 -5 39 -14 72 -20 33 -6 81 -18 106 -26 45 -14 47 -14 42 5 -3 12 -11 18
-19 15 -8 -3 -14 -1 -14 5 0 6 -6 9 -14 6 -7 -3 -17 -2 -22 3 -14 12 -136 37
-267 55 -141 18 -305 18 -442 -1z"/>
<path d="M2373 4753 c15 -2 37 -2 50 0 12 2 0 4 -28 4 -27 0 -38 -2 -22 -4z"/>
<path d="M2473 4753 c9 -2 23 -2 30 0 6 3 -1 5 -18 5 -16 0 -22 -2 -12 -5z"/>
<path d="M2348 4733 c7 -3 16 -2 19 1 4 3 -2 6 -13 5 -11 0 -14 -3 -6 -6z"/>
<path d="M3041 4728 c-1 -21 7 -22 29 -7 13 9 13 10 -2 6 -9 -3 -19 -1 -22 6
-2 7 -5 4 -5 -5z"/>
<path d="M3140 4688 c0 -9 13 -15 38 -16 38 -2 31 8 -15 22 -16 5 -23 3 -23
-6z"/>
<path d="M1710 4660 c0 -5 5 -10 11 -10 5 0 7 5 4 10 -3 6 -8 10 -11 10 -2 0
-4 -4 -4 -10z"/>
<path d="M1858 4642 c-10 -2 -18 -10 -18 -18 0 -20 -41 -35 -59 -20 -12 9 -13
8 -8 -6 3 -10 2 -18 -2 -18 -5 0 -11 4 -13 10 -4 14 -196 -84 -298 -152 -239
-160 -459 -373 -598 -581 -163 -241 -293 -567 -338 -846 -30 -187 -27 -559 6
-667 6 -20 6 -10 2 31 -12 101 -8 474 6 555 22 132 44 220 53 214 5 -3 9 -1 9
5 0 6 9 19 21 29 12 12 21 34 22 56 1 20 5 36 8 36 3 0 13 27 22 60 9 32 40
112 67 177 197 458 536 813 992 1037 70 35 125 66 121 70 -4 4 0 4 8 1 8 -3
25 -2 37 2 l21 8 -22 10 c-12 6 -30 9 -39 7z"/>
<path d="M3568 4454 c17 -32 72 -74 72 -55 0 5 -19 24 -41 42 -29 23 -39 27
-31 13z"/>
<path d="M2435 4409 c-324 -41 -672 -238 -901 -511 -239 -285 -380 -626 -424
-1025 -12 -109 -12 -401 0 -408 5 -3 9 64 9 150 3 438 161 891 419 1195 102
121 249 253 357 323 143 91 328 168 485 202 228 48 529 15 782 -86 126 -50
146 -60 296 -152 130 -81 159 -87 65 -14 -335 257 -719 372 -1088 326z"/>
<path d="M3731 4304 c47 -49 91 -99 98 -111 6 -13 17 -23 24 -23 12 0 45 -51
52 -81 9 -41 19 -58 38 -69 52 -28 292 -364 371 -520 49 -94 64 -111 36 -40
-49 126 -175 339 -293 495 -112 147 -347 403 -392 427 -11 6 19 -29 66 -78z"/>
<path d="M3515 4331 c6 -5 28 -17 50 -26 22 -9 36 -12 30 -7 -5 6 -28 18 -50
27 -22 9 -35 12 -30 6z"/>
<path d="M1124 4288 l-19 -23 23 19 c21 18 27 26 19 26 -2 0 -12 -10 -23 -22z"/>
<path d="M2395 4293 c-347 -73 -668 -302 -889 -633 -215 -322 -317 -733 -285
-1154 14 -187 28 -256 21 -106 -4 113 9 317 29 435 74 440 285 838 564 1065
245 199 524 301 819 301 230 -1 407 -43 631 -152 148 -71 224 -121 346 -224
82 -70 132 -120 270 -275 30 -33 30 -34 14 -5 -56 96 -201 261 -313 356 -248
210 -510 344 -772 393 -105 20 -339 20 -435 -1z"/>
<path d="M3745 4180 c10 -11 20 -20 23 -20 3 0 -3 9 -13 20 -10 11 -20 20 -23
20 -3 0 3 -9 13 -20z"/>
<path d="M3592 4018 c2 -6 15 -18 29 -27 l24 -15 -24 27 c-26 29 -35 34 -29
15z"/>
<path d="M3855 3961 c-3 -5 -2 -12 3 -15 5 -3 9 1 9 9 0 17 -3 19 -12 6z"/>
<path d="M3875 3910 c10 -11 20 -20 22 -20 2 0 -1 9 -7 20 -6 11 -16 20 -22
20 -6 0 -3 -9 7 -20z"/>
<path d="M3910 3866 c0 -2 8 -10 18 -17 15 -13 16 -12 3 4 -13 16 -21 21 -21
13z"/>
<path d="M3770 3846 c0 -2 8 -10 18 -17 15 -13 16 -12 3 4 -13 16 -21 21 -21
13z"/>
<path d="M3967 3795 c28 -37 110 -173 162 -270 l22 -40 -5 40 c-3 22 -13 46
-23 52 -9 7 -14 13 -10 13 18 0 -105 181 -149 220 l-28 25 31 -40z"/>
<path d="M2584 3705 c-247 -54 -502 -279 -615 -545 -72 -171 -107 -412 -95
-660 14 -288 30 -307 33 -37 1 207 14 356 39 452 9 33 18 68 20 79 7 39 79
193 111 241 130 190 383 384 523 400 41 5 40 4 -14 -10 -238 -61 -472 -327
-544 -620 -61 -244 -57 -584 9 -850 11 -43 24 -86 29 -95 5 -10 11 -29 14 -44
3 -15 25 -60 50 -99 46 -74 154 -202 164 -193 2 3 -15 27 -39 54 -53 59 -117
168 -165 283 -78 186 -99 495 -49 741 42 206 90 320 194 456 135 178 289 267
483 279 211 14 372 -61 577 -267 113 -114 153 -137 218 -127 48 8 109 50 128
87 13 25 20 130 9 130 -1 0 -60 -36 -131 -80 l-128 -80 -18 23 c-137 167 -216
239 -346 318 -78 47 -204 87 -311 98 -76 8 -69 9 65 6 132 -2 160 -6 230 -29
86 -29 138 -57 224 -118 30 -21 62 -38 71 -38 25 0 90 -28 130 -57 19 -13 4 6
-35 43 -189 182 -412 275 -654 273 -64 0 -143 -7 -177 -14z"/>
<path d="M4110 3308 c0 -11 30 -78 35 -78 3 0 -2 17 -10 37 -15 36 -25 52 -25
41z"/>
<path d="M4161 3164 c0 -11 3 -14 6 -6 3 7 2 16 -1 19 -3 4 -6 -2 -5 -13z"/>
<path d="M4522 2770 c0 -14 2 -19 5 -12 2 6 2 18 0 25 -3 6 -5 1 -5 -13z"/>
<path d="M4530 2591 c0 -37 -11 -123 -25 -191 -14 -68 -25 -142 -25 -166 0
-51 -58 -283 -94 -372 -54 -135 -238 -449 -320 -547 -26 -30 -26 -30 4 37 16
37 48 95 70 130 56 86 174 320 215 427 38 98 105 342 105 382 0 23 -37 76 -46
66 -2 -2 -18 -58 -34 -123 -79 -322 -259 -716 -419 -917 -238 -299 -567 -533
-910 -647 -214 -71 -389 -95 -641 -87 -233 7 -423 49 -633 141 -30 13 -37 14
-37 2 0 -11 110 -86 126 -86 3 0 17 -9 32 -20 36 -26 282 -116 282 -103 0 3 7
-1 17 -8 9 -8 18 -13 20 -11 5 5 65 -9 60 -14 -7 -8 -184 25 -282 52 -175 48
-333 116 -484 207 -91 55 -93 56 -87 29 11 -45 11 -47 18 -50 4 -1 19 -13 33
-26 41 -38 254 -143 366 -180 121 -41 287 -80 414 -98 110 -15 448 -15 530 0
33 7 76 14 95 17 79 13 175 38 187 51 7 7 22 11 33 9 11 -2 18 -1 16 4 -3 4
21 16 52 26 31 10 89 34 129 52 40 18 74 33 77 33 2 0 51 29 109 63 108 66
245 167 332 246 99 90 125 111 133 111 11 0 96 115 173 232 82 128 269 503
307 618 42 127 69 240 88 358 16 104 31 422 21 422 -4 0 -7 -31 -7 -69z m-530
-1361 c-32 -40 -67 -70 -41 -34 21 27 64 74 69 74 2 0 -11 -18 -28 -40z m-50
-63 c0 -1 -38 -40 -85 -87 -47 -47 -85 -82 -85 -78 0 6 161 168 168 168 1 0 2
-1 2 -3z m-200 -191 c0 -2 -8 -10 -17 -17 -16 -13 -17 -12 -4 4 13 16 21 21
21 13z m-1053 -492 c-3 -3 -12 -4 -19 -1 -8 3 -5 6 6 6 11 1 17 -2 13 -5z
m-319 -11 c-10 -2 -26 -2 -35 0 -10 3 -2 5 17 5 19 0 27 -2 18 -5z m220 0
c-15 -2 -42 -2 -60 0 -18 2 -6 4 27 4 33 0 48 -2 33 -4z"/>
<path d="M4672 2630 c0 -19 2 -27 5 -17 2 9 2 25 0 35 -3 9 -5 1 -5 -18z"/>
<path d="M4673 2515 c0 -38 2 -53 4 -32 2 20 2 52 0 70 -2 17 -4 1 -4 -38z"/>
<path d="M4285 2493 c-3 -10 -9 -58 -11 -108 -3 -49 -7 -104 -10 -122 -4 -28
-7 -30 -32 -24 -21 6 -27 13 -25 32 3 32 5 109 4 137 -2 40 -17 23 -27 -30
l-9 -53 -120 4 c-113 3 -118 2 -105 -14 26 -31 87 -64 151 -82 l61 -17 -5 -37
c-3 -20 -32 -87 -66 -149 -33 -62 -61 -116 -61 -120 0 -13 -144 -265 -167
-294 -13 -15 -30 -42 -37 -60 -8 -17 -46 -69 -85 -116 -39 -47 -88 -104 -107
-128 -63 -75 -31 -55 71 46 214 210 362 461 450 762 30 103 31 105 60 105 17
-1 40 -4 52 -8 23 -8 26 -4 37 63 5 30 12 38 52 54 42 17 44 19 29 36 -9 10
-23 39 -31 65 -21 72 -53 98 -69 58z"/>
<path d="M3640 2436 c37 -19 101 -41 150 -51 47 -9 97 -23 111 -31 34 -17 39
-11 39 46 0 25 5 51 12 58 9 9 -31 12 -182 12 l-195 0 65 -34z"/>
<path d="M1111 2404 c0 -11 3 -14 6 -6 3 7 2 16 -1 19 -3 4 -6 -2 -5 -13z"/>
<path d="M1901 2234 c0 -11 3 -14 6 -6 3 7 2 16 -1 19 -3 4 -6 -2 -5 -13z"/>
<path d="M3905 2134 c58 -30 59 -33 16 -122 -41 -83 -131 -225 -153 -238 -8
-5 -9 -2 -4 12 27 66 48 134 52 169 3 21 8 43 10 47 3 4 7 24 9 45 4 32 -3 23
-49 -65 -133 -252 -294 -409 -541 -527 -212 -102 -428 -135 -655 -100 -142 22
-204 40 -320 97 -58 29 -111 51 -118 49 -28 -5 -188 140 -290 264 -41 50 -32
31 28 -60 95 -142 264 -301 408 -383 175 -101 349 -143 587 -143 134 1 286 31
383 76 29 14 58 25 64 25 15 0 108 53 196 113 94 62 243 211 321 319 33 45 69
94 79 108 17 23 29 46 76 152 9 20 17 58 18 84 3 61 -27 90 -98 92 l-49 2 30
-16z m-145 -378 c0 -2 -8 -10 -17 -17 -16 -13 -17 -12 -4 4 13 16 21 21 21 13z"/>
<path d="M3305 1848 l-40 -43 43 40 c39 36 47 45 39 45 -2 0 -21 -19 -42 -42z"/>
<path d="M2320 1716 c0 -2 8 -10 18 -17 15 -13 16 -12 3 4 -13 16 -21 21 -21
13z"/>
<path d="M960 1579 c0 -5 -5 -7 -12 -3 -21 13 93 -145 170 -234 116 -135 241
-244 412 -359 73 -49 155 -95 135 -76 -5 6 -57 40 -115 78 -113 73 -245 194
-363 335 -40 47 -75 87 -78 90 -3 3 -25 34 -49 70 -63 96 -100 132 -100 99z"/>
<path d="M3559 1233 c-13 -16 -12 -17 4 -4 9 7 17 15 17 17 0 8 -8 3 -21 -13z"/>
<path d="M1684 891 c6 -10 66 -33 66 -26 0 5 -56 35 -65 35 -3 0 -4 -4 -1 -9z"/>
<path d="M1616 572 c-7 -12 171 -88 299 -128 l90 -28 -124 -13 c-136 -13 -159
-19 -145 -33 26 -25 261 -35 824 -34 578 2 798 13 807 40 5 15 -43 22 -212 30
-77 4 -146 10 -153 13 -7 4 -51 -1 -97 -10 -365 -74 -794 -34 -1137 105 -62
26 -117 47 -123 49 -5 1 -13 6 -16 11 -4 4 -9 4 -13 -2z"/>
</g>
</svg>