<?xml version="1.0" standalone="no"?>
<!DOCTYPE svg PUBLIC "-//W3C//DTD SVG 20010904//EN"
 "http://www.w3.org/TR/2001/REC-SVG-20010904/DTD/svg10.dtd">
<svg version="1.0" xmlns="http://www.w3.org/2000/svg"
 width="512.000000pt" height="512.000000pt" viewBox="0 0 512.000000 512.000000"
 preserveAspectRatio="xMidYMid meet">
<metadata>
Created by potrace 1.16, written by Peter Selinger 2001-2019
</metadata>
<g transform="translate(0.000000,512.000000) scale(0.100000,-0.100000)"
fill="#ffffff" stroke="none">
<path d="M1005 5028 c-127 -47 -213 -189 -222 -368 -9 -162 32 -284 131 -388
64 -68 71 -87 51 -135 -24 -57 -19 -119 16 -202 31 -74 31 -75 15 -129 -19
-66 -19 -66 -2 -66 39 0 14 -24 -112 -107 -75 -50 -148 -96 -162 -104 l-25
-13 33 -6 33 -5 -88 -69 c-53 -41 -78 -66 -63 -62 14 4 40 10 59 13 28 5 32 3
26 -8 -5 -8 -23 -36 -41 -64 -17 -27 -44 -74 -58 -104 -15 -29 -49 -76 -74
-104 l-47 -50 33 6 32 7 -25 -50 c-25 -50 -59 -164 -69 -234 l-5 -38 33 38
c19 22 36 37 39 34 3 -3 -8 -34 -25 -70 -27 -61 -82 -240 -72 -240 2 0 21 16
42 35 l39 34 -13 -67 c-7 -37 -13 -112 -13 -167 0 -97 0 -99 14 -61 7 21 21
46 29 55 15 14 16 7 16 -76 0 -110 34 -253 85 -361 55 -115 61 -121 61 -54 -1
32 3 80 8 107 l9 50 17 -66 c20 -79 58 -162 99 -223 l31 -45 50 53 c31 33 92
78 157 116 103 61 285 151 291 145 2 -2 -1 -13 -7 -24 -10 -18 -3 -16 56 14
36 19 88 40 115 46 49 13 59 27 33 49 -12 10 -25 9 -67 -5 -72 -23 -398 -190
-444 -226 -45 -36 -55 -29 -62 41 -5 60 -4 62 128 149 65 44 84 51 143 57 l68
7 -30 -49 c-38 -60 -39 -71 -3 -45 58 41 292 120 457 155 l68 14 59 -41 c56
-39 64 -42 140 -46 44 -2 138 0 207 4 147 9 144 11 -100 55 -168 30 -218 48
-249 88 -24 30 -25 60 -5 109 l16 37 20 -41 c26 -54 39 -61 196 -116 73 -26
152 -56 175 -67 l43 -21 -40 37 c-58 53 -130 97 -210 129 -38 15 -82 34 -97
41 -33 17 -62 68 -55 96 5 17 3 17 -11 6 -44 -34 -92 -126 -92 -176 l0 -33
-67 7 c-61 6 -73 12 -123 52 -83 69 -150 135 -150 148 0 26 144 33 190 9 15
-8 38 -27 51 -42 l22 -28 -6 25 c-3 14 -9 41 -12 61 -9 47 -33 60 -134 71 -99
10 -128 25 -136 72 -12 61 -5 71 50 72 28 1 77 5 111 9 82 10 104 -2 105 -58
l0 -42 19 46 c23 57 111 207 146 248 14 17 23 31 19 31 -17 0 -85 -64 -116
-109 -24 -35 -39 -49 -49 -44 -8 3 -42 12 -75 20 -91 21 -107 33 -137 93 -39
78 -51 156 -44 280 8 141 18 169 78 235 l52 57 -13 46 c-14 55 -10 50 -49 58
-29 6 -32 3 -55 -43 -14 -27 -35 -82 -48 -123 -33 -107 -29 -186 20 -420 22
-107 37 -198 33 -202 -5 -5 -35 5 -66 21 l-59 29 6 -48 c3 -26 15 -79 27 -118
14 -45 20 -89 18 -126 l-3 -58 -46 36 c-90 69 -113 159 -114 451 0 203 1 213
27 290 15 44 48 115 72 158 43 76 44 80 29 103 -8 13 -16 44 -17 69 l-1 44
-27 -26 c-39 -37 -94 -147 -119 -238 -20 -72 -21 -94 -15 -229 4 -82 9 -176
12 -210 l5 -61 -27 60 c-14 33 -32 86 -38 119 -16 78 -23 56 -37 -123 -5 -74
-12 -138 -14 -142 -3 -3 14 -36 36 -72 21 -37 47 -96 57 -132 15 -58 20 -66
48 -75 17 -6 64 -33 105 -61 137 -94 241 -160 262 -169 16 -6 1 -9 -53 -11
-71 -2 -69 -2 40 -10 149 -12 195 -21 195 -39 0 -10 -16 -17 -50 -22 -27 -4
-90 -19 -139 -33 l-90 -26 -60 42 -61 41 -50 -17 c-91 -32 -170 -71 -205 -102
-49 -42 -150 -115 -150 -108 0 16 66 134 88 158 30 32 52 36 45 7 -7 -26 5
-25 80 7 34 14 107 41 162 59 l100 33 -73 1 c-82 0 -198 -21 -278 -51 -79 -30
-145 -78 -182 -133 -41 -62 -42 -83 0 -25 31 44 39 51 91 90 l27 21 -21 -37
c-12 -20 -34 -72 -50 -116 -15 -45 -29 -83 -32 -85 -14 -14 16 93 38 137 35
68 19 55 -55 -43 -58 -79 -60 -80 -60 -48 0 19 -10 70 -22 114 -21 81 -22 81
-34 51 -7 -17 -18 -55 -25 -85 -7 -30 -16 -59 -21 -64 -12 -15 -10 148 3 202
19 76 85 209 136 273 l48 59 3 -51 c3 -46 5 -49 20 -37 15 12 15 10 -1 -14
-20 -31 -23 -48 -5 -30 22 22 29 13 13 -18 -21 -41 -19 -47 10 -20 30 28 32
16 5 -25 -30 -46 -24 -49 27 -14 37 26 45 28 39 13 -5 -10 -17 -43 -27 -73
-16 -44 -16 -51 -3 -40 8 7 22 26 30 42 9 16 18 27 21 24 2 -3 -1 -15 -7 -27
-6 -12 -10 -23 -8 -25 2 -2 48 7 103 21 55 13 112 24 127 24 15 0 29 4 32 9 3
4 -30 36 -74 71 -75 61 -100 92 -100 128 -1 13 -7 10 -26 -13 l-26 -30 6 50 7
50 -20 -25 -19 -25 -7 28 c-4 15 -5 43 -3 62 l4 35 -22 -21 -23 -21 -7 62 -7
63 -19 -24 -20 -24 7 30 c3 17 21 60 40 97 l33 68 -39 -31 c-21 -17 -39 -29
-39 -26 0 2 11 24 24 48 14 24 32 62 41 83 l17 39 -26 -17 c-32 -20 -34 -10
-4 21 18 19 24 44 34 141 22 210 94 442 174 556 22 31 40 59 40 61 0 6 -114
-31 -147 -48 -39 -21 -51 -37 -21 -30 14 3 4 -7 -24 -27 -57 -38 -69 -54 -32
-39 l28 10 -19 -22 c-11 -11 -41 -32 -67 -45 -27 -13 -48 -26 -48 -27 0 -1 18
-1 40 1 46 5 53 -10 13 -27 -16 -7 -41 -23 -58 -37 -20 -17 -23 -22 -8 -15 12
6 36 11 54 11 29 0 24 -4 -47 -40 -90 -45 -92 -48 -9 -20 32 11 61 18 63 15 3
-3 -42 -51 -99 -108 -103 -100 -233 -246 -194 -217 11 8 61 55 110 106 82 82
170 152 181 141 8 -8 -26 -76 -43 -86 -10 -5 -36 -24 -58 -41 l-40 -33 32 6
c78 15 38 -17 -182 -149 -54 -32 -105 -63 -112 -67 -21 -13 23 90 72 168 24
38 42 71 40 73 -2 2 -17 -4 -35 -13 l-31 -16 12 23 c17 33 120 132 191 184 33
24 56 44 50 44 -5 0 -32 -16 -58 -35 -77 -55 -94 -63 -64 -30 14 14 37 34 53
43 42 25 32 31 -24 15 -28 -8 -53 -12 -56 -10 -3 3 4 19 16 35 18 26 63 60
161 121 l35 22 -42 -6 -42 -7 15 32 c11 21 39 44 91 73 188 105 346 221 480
351 73 71 133 134 133 141 0 7 7 18 16 26 32 27 88 169 66 169 -13 0 -71 -95
-81 -135 -15 -57 -34 -80 -80 -93 -58 -18 -95 -53 -140 -135 -46 -84 -63 -101
-152 -155 -151 -91 -165 -88 -39 8 95 72 101 81 52 69 -20 -5 -63 -9 -96 -9
l-58 0 6 28 c5 27 5 27 -9 -3 -12 -25 -14 -27 -15 -9 0 12 -12 47 -26 79 -19
41 -25 67 -21 94 5 44 98 186 109 168 4 -6 12 -41 19 -78 11 -63 11 -68 -15
-118 -26 -52 -33 -81 -19 -81 4 0 32 20 62 44 31 24 88 64 126 88 39 25 88 65
110 88 l40 43 -36 -26 c-69 -51 -145 -71 -167 -44 -8 9 4 20 51 45 34 18 76
44 92 58 l30 25 -54 -21 c-29 -11 -55 -19 -57 -17 -8 8 184 98 210 97 16 0 26
3 22 7 -3 4 -48 6 -99 5 -50 -2 -105 1 -122 6 -27 8 -23 9 34 15 35 4 81 12
103 19 l40 12 -61 12 c-53 11 -180 79 -168 90 2 2 28 -6 58 -17 70 -27 196
-37 232 -18 24 13 22 14 -41 15 -39 1 -131 17 -222 39 -208 50 -218 53 -155
54 l50 1 -40 26 c-44 28 -49 28 88 0 43 -9 100 -16 125 -15 l47 1 -72 18 c-82
21 -99 29 -163 74 -68 49 -78 52 -46 18 37 -40 30 -40 -40 -2 -41 22 -61 27
-74 20 -27 -15 -50 -56 -61 -113 -11 -51 -3 -105 25 -182 13 -34 -83 77 -105
122 -12 25 -23 72 -26 116 -11 139 48 268 151 331 40 25 57 30 111 29 103 -1
170 -37 399 -220 132 -105 185 -136 250 -148 l37 -7 -42 56 c-31 42 -62 67
-123 103 -44 25 -134 82 -198 125 -157 105 -214 130 -302 134 -39 2 -84 -1
-101 -8z m-105 -1974 c0 -3 -17 -26 -37 -51 -28 -35 -32 -43 -16 -35 12 7 24
12 27 12 10 0 -55 -135 -75 -156 -24 -25 -25 -43 -1 -22 28 25 82 50 82 38 0
-19 -36 -83 -82 -145 -65 -88 -65 -89 -2 -45 32 22 61 40 65 40 4 0 -4 -26
-18 -57 -14 -32 -29 -68 -34 -81 l-9 -23 33 24 c42 32 97 60 105 53 3 -3 0
-17 -6 -31 -13 -28 -10 -30 19 -14 44 23 -19 -67 -113 -162 -71 -72 -105 -116
-138 -180 l-45 -84 -3 60 c-7 135 33 290 91 354 25 27 11 21 -52 -23 -24 -17
-61 -53 -82 -80 -22 -27 -39 -45 -39 -40 0 5 9 48 19 95 21 95 43 153 69 184
11 13 7 11 -12 -5 -16 -14 -47 -52 -68 -85 l-40 -60 7 40 c19 106 76 310 92
327 24 27 121 93 190 129 54 29 73 35 73 23z"/>
<path d="M4030 5031 c-54 -17 -130 -63 -240 -146 -63 -48 -145 -102 -182 -121
-49 -25 -77 -47 -107 -86 -37 -48 -39 -53 -20 -56 29 -5 102 22 152 57 24 16
89 71 143 121 205 189 313 232 434 170 50 -25 107 -91 138 -159 22 -46 27 -70
27 -141 0 -75 -4 -91 -29 -138 -44 -79 -53 -82 -48 -13 5 70 -9 120 -45 155
-37 37 -72 33 -171 -21 -47 -25 -122 -59 -166 -75 -45 -15 -70 -28 -56 -28 37
0 203 37 244 54 l36 15 -17 -26 c-49 -75 -180 -127 -318 -128 -49 0 -110 3
-135 7 l-45 7 45 -21 c75 -35 246 -36 345 -2 11 3 4 -5 -15 -18 -40 -29 -84
-44 -155 -54 l-50 -8 45 -12 c25 -7 72 -16 105 -20 60 -7 60 -7 25 -17 -19 -5
-82 -7 -140 -4 l-105 4 65 -17 c36 -9 99 -34 140 -54 l75 -37 -54 5 -54 5 82
-39 c44 -22 81 -44 81 -50 0 -20 -54 -9 -124 25 l-71 35 65 -61 c102 -95 229
-192 245 -185 11 4 9 14 -12 52 -25 45 -26 48 -13 118 16 93 23 106 39 68 7
-16 25 -42 41 -57 41 -39 46 -73 20 -151 -24 -71 -20 -105 17 -177 23 -45 25
-26 7 47 -16 65 -16 67 6 118 29 68 28 121 -4 188 -34 72 -33 88 11 130 88 85
133 199 133 339 0 179 -79 329 -205 387 -51 24 -133 31 -185 15z"/>
<path d="M2429 4950 c-181 -17 -348 -62 -573 -157 -72 -30 -132 -56 -133 -57
-1 -1 7 -21 19 -44 23 -49 56 -69 165 -102 59 -18 79 -20 105 -11 37 12 290
46 448 60 100 9 97 9 -55 5 -88 -2 -180 -7 -205 -9 -44 -4 -44 -4 -10 5 82 23
268 50 340 50 140 0 178 -32 95 -82 -55 -34 -93 -43 -223 -58 -93 -10 -315
-68 -267 -69 17 -1 17 -3 5 -15 -8 -8 -59 -24 -113 -35 -127 -26 -208 -64
-275 -131 -29 -29 -50 -55 -48 -58 3 -2 27 11 53 30 26 19 69 47 94 62 50 29
219 89 227 81 3 -3 0 -5 -6 -5 -15 0 -157 -163 -187 -215 -26 -44 -63 -132
-42 -101 34 53 114 141 160 177 97 77 244 139 437 184 41 9 108 35 148 56 l72
40 0 -33 c0 -46 -32 -95 -67 -102 -15 -3 -72 -10 -126 -16 -186 -21 -289 -62
-387 -152 -30 -28 -48 -48 -40 -45 8 3 44 18 80 33 36 15 114 35 175 46 60 10
127 23 150 29 46 13 153 64 176 85 23 21 39 17 39 -10 0 -15 -18 -40 -53 -73
-89 -84 -122 -101 -243 -124 -102 -19 -189 -53 -215 -85 -14 -17 81 -28 167
-19 127 13 217 50 290 117 l44 41 0 -61 c0 -56 -2 -62 -35 -91 -31 -27 -81
-46 -227 -87 -34 -10 -18 -24 25 -23 76 1 136 15 174 42 20 15 39 24 42 22 2
-3 -5 -24 -17 -48 -38 -77 -62 -138 -51 -131 6 4 24 34 40 68 l28 61 1 -40 c0
-47 -40 -191 -76 -272 -13 -31 -22 -58 -20 -60 6 -6 61 68 85 114 12 24 24 63
28 88 3 25 9 45 13 45 4 0 10 -27 14 -61 6 -57 65 -196 73 -172 2 5 -8 56 -22
114 -14 57 -28 136 -30 174 -4 65 -4 67 6 27 11 -46 13 -48 132 -110 49 -26
77 -36 77 -28 0 29 -48 80 -103 110 -39 20 -66 44 -81 69 -13 20 -26 34 -31
29 -4 -4 -5 1 -2 11 4 10 7 33 7 50 l1 32 13 -30 c23 -50 67 -84 125 -95 103
-19 106 -10 18 53 -35 25 -80 64 -100 86 -31 34 -37 48 -37 84 0 24 2 46 5 49
3 2 31 -21 63 -52 51 -52 66 -60 147 -85 96 -30 239 -44 265 -26 13 9 12 12
-5 25 -41 32 -102 56 -180 72 -44 9 -106 30 -137 46 -74 39 -166 124 -174 161
l-7 29 39 -25 c82 -51 130 -69 275 -102 161 -37 211 -56 286 -106 47 -31 47
-31 -22 40 -113 116 -202 157 -373 168 -79 5 -99 10 -122 30 -26 22 -66 100
-56 110 2 3 46 -13 98 -35 51 -22 123 -49 160 -61 116 -35 201 -72 268 -116
61 -41 168 -143 218 -210 19 -25 21 -26 11 -5 -16 33 -113 172 -167 239 l-44
53 74 -38 c40 -22 101 -60 136 -86 l63 -48 -37 45 c-53 62 -113 102 -212 141
-47 19 -94 43 -104 54 -21 22 -127 56 -298 94 -63 15 -133 37 -155 50 l-40 25
30 11 c77 30 132 33 245 16 175 -27 294 -61 268 -77 -9 -6 -4 -9 15 -9 16 0
37 -4 47 -10 12 -7 34 -5 71 7 47 14 51 17 29 22 -14 3 -63 25 -110 48 -125
62 -250 94 -397 100 -75 4 -133 2 -152 -5 -29 -10 -31 -9 -31 12 0 28 14 35
89 42 99 11 406 -42 509 -86 76 -34 44 -10 -40 30 -146 68 -414 121 -517 102
l-52 -9 3 26 c4 32 27 38 154 40 158 2 361 -44 539 -121 49 -21 93 -42 97 -46
4 -4 -4 -25 -18 -46 -38 -55 -24 -54 25 4 l42 49 -78 39 c-157 78 -331 131
-498 150 -123 15 -431 21 -536 12z m176 -48 c34 -6 40 -11 43 -34 3 -27 2 -27
-30 -20 -18 4 -89 6 -158 6 -105 -1 -144 -6 -243 -32 -116 -30 -247 -83 -267
-107 -6 -7 17 -3 52 10 201 73 583 108 633 58 30 -29 19 -42 -27 -31 -61 14
-287 2 -393 -21 -118 -26 -168 -44 -238 -87 l-58 -36 -52 19 c-35 12 -56 26
-64 44 -7 15 -20 32 -29 39 -13 12 -3 19 75 51 119 50 295 106 401 129 88 19
278 25 355 12z m-478 -278 c-3 -3 -12 -4 -19 -1 -8 3 -5 6 6 6 11 1 17 -2 13
-5z"/>
<path d="M1005 4922 c-14 -6 0 -10 48 -15 83 -8 129 -28 243 -104 184 -123
203 -126 54 -8 -112 89 -188 127 -265 131 -33 2 -69 0 -80 -4z"/>
<path d="M4015 4906 c-51 -23 -127 -81 -226 -170 l-54 -49 65 45 c36 24 97 67
135 95 81 59 144 83 218 83 37 0 48 3 37 10 -28 18 -122 11 -175 -14z"/>
<path d="M4050 4829 c-19 -12 -54 -39 -78 -60 -23 -22 -70 -57 -104 -79 -33
-22 -58 -40 -54 -40 18 0 100 49 187 111 52 38 106 73 120 78 24 10 24 10 -6
10 -16 1 -46 -9 -65 -20z"/>
<path d="M1005 4827 c17 -8 54 -35 84 -61 35 -29 83 -57 130 -75 137 -52 142
-49 45 30 -112 90 -152 110 -228 116 -58 4 -60 3 -31 -10z"/>
<path d="M4105 4758 c-11 -7 -63 -32 -115 -56 -52 -24 -81 -41 -65 -39 57 10
147 49 179 78 33 30 33 36 1 17z"/>
<path d="M2905 4639 c77 -4 176 -15 220 -23 88 -18 116 -19 70 -5 -65 20 -225
39 -325 37 l-105 -1 140 -8z"/>
<path d="M1812 4510 c-47 -11 -182 -61 -182 -67 0 -10 125 9 219 33 51 13 105
24 120 24 14 0 33 5 41 10 18 12 -148 12 -198 0z"/>
<path d="M3275 4506 l-50 -14 60 -1 c33 0 102 -13 153 -27 123 -33 147 -27 58
16 -80 39 -145 46 -221 26z"/>
<path d="M1613 4385 c-18 -8 -33 -16 -33 -19 0 -5 91 23 99 30 11 10 -38 2
-66 -11z"/>
<path d="M3531 4386 c2 -2 31 -6 64 -9 39 -4 51 -3 35 2 -25 9 -107 15 -99 7z"/>
<path d="M3531 4285 c12 -22 26 -44 32 -50 15 -16 -20 48 -38 70 -9 11 -7 2 6
-20z"/>
<path d="M3570 4277 c0 -37 30 -87 71 -116 23 -17 44 -29 46 -27 9 9 -38 83
-76 121 -30 29 -41 35 -41 22z"/>
<path d="M1550 4043 c-64 -65 -85 -90 -54 -65 44 35 172 172 162 172 -2 0 -51
-48 -108 -107z"/>
<path d="M1588 4018 c-89 -115 -124 -167 -158 -240 l-30 -63 23 -20 c13 -11
50 -41 83 -66 48 -37 67 -60 92 -113 l33 -68 -44 -69 c-54 -83 -72 -142 -63
-204 9 -58 22 -50 31 18 11 83 61 176 115 214 30 21 70 9 70 -21 0 -71 63
-154 137 -182 33 -13 61 -15 119 -11 93 8 110 0 125 -58 6 -25 15 -42 20 -39
14 8 11 -2 -12 -41 -25 -42 -16 -61 11 -25 l20 25 0 -31 c0 -17 -7 -51 -15
-74 -8 -24 -13 -45 -11 -47 3 -3 18 14 34 36 38 52 82 161 89 221 4 39 1 50
-20 75 -13 17 -32 56 -41 88 -20 69 -65 122 -133 159 -76 42 -134 45 -228 13
-69 -23 -85 -25 -117 -16 -81 25 -115 115 -105 281 l5 95 -18 -40 c-10 -22
-22 -49 -25 -60 -4 -11 -9 -15 -12 -9 -5 16 42 200 72 281 14 36 23 68 21 70
-2 2 -33 -33 -68 -79z m372 -567 c0 -5 -7 -17 -16 -26 -19 -18 -12 -60 11 -69
19 -7 37 26 33 62 -2 21 2 28 19 30 14 2 26 -4 33 -17 8 -16 8 -21 -2 -22 -7
0 -4 -4 7 -8 11 -5 23 -4 26 1 9 14 39 -32 39 -58 0 -26 -40 -71 -75 -84 -40
-15 -106 -12 -145 8 -64 32 -100 114 -65 148 8 9 15 13 15 11 0 -3 21 3 48 13
55 21 72 24 72 11z"/>
<path d="M3604 4085 c4 -11 27 -87 52 -169 43 -148 60 -239 25 -140 -20 55
-51 118 -55 112 -2 -1 0 -52 5 -113 9 -124 -2 -228 -26 -255 -9 -10 -32 -26
-51 -35 -32 -15 -38 -14 -104 6 -173 52 -325 -21 -379 -184 -12 -36 -29 -71
-38 -78 -37 -31 27 -227 103 -314 l26 -30 -6 68 c-4 37 -9 82 -12 100 l-6 32
22 -30 c12 -16 19 -21 14 -10 -4 11 -9 41 -12 67 -3 37 0 50 17 67 20 20 29
21 94 15 97 -8 148 7 203 59 33 32 46 54 55 92 7 28 13 56 15 63 2 6 15 12 29
12 19 0 33 -11 56 -47 26 -41 30 -55 26 -96 -7 -83 -88 -161 -180 -174 l-52
-7 45 -8 c48 -8 146 4 180 22 12 7 31 32 42 57 30 68 16 148 -43 241 l-28 44
40 61 c21 34 74 95 116 134 l78 73 -30 57 c-55 108 -244 370 -221 308z m-296
-652 c2 -8 -5 -13 -17 -13 -23 0 -27 -20 -11 -51 23 -41 60 -10 60 50 0 23 5
31 18 31 30 0 92 -20 92 -30 0 -5 7 -7 15 -4 11 5 15 -1 15 -20 0 -93 -122
-172 -222 -145 -52 14 -98 61 -98 101 0 16 4 27 9 24 5 -3 22 9 39 28 16 18
35 36 43 39 22 9 52 3 57 -10z"/>
<path d="M3665 4091 c-3 -5 -2 -12 3 -15 5 -3 9 1 9 9 0 17 -3 19 -12 6z"/>
<path d="M3730 4050 c11 -16 60 -69 108 -118 72 -73 115 -106 247 -187 88 -54
180 -110 205 -126 45 -29 45 -29 15 -29 l-30 0 30 -18 c17 -11 36 -26 44 -35
12 -15 9 -17 -35 -17 l-49 -1 70 -33 c79 -37 116 -66 175 -136 l41 -48 -84 34
c-47 19 -100 37 -118 40 -24 4 -14 -3 31 -22 122 -51 159 -85 234 -218 l28
-49 -75 64 c-72 62 -160 120 -202 135 -11 4 14 -16 55 -43 88 -59 132 -103
135 -136 2 -13 11 -39 21 -58 9 -19 37 -79 60 -133 l43 -100 -37 36 c-20 19
-53 46 -72 59 -19 13 -69 53 -111 89 -41 36 -88 75 -105 87 l-29 21 24 18 24
17 -24 10 c-13 5 -38 13 -56 17 -31 7 -32 6 -38 -29 -5 -28 2 -58 29 -126 19
-50 37 -99 42 -110 6 -17 4 -17 -20 5 l-28 25 7 -30 c13 -56 28 -100 57 -167
26 -56 38 -72 84 -101 35 -23 51 -29 45 -18 -5 9 -19 54 -30 98 -12 45 -24 89
-28 99 -6 16 -3 16 30 -4 21 -12 37 -17 37 -10 0 6 -27 63 -60 126 -33 63 -59
117 -56 119 7 7 122 -94 159 -139 40 -50 72 -110 98 -187 26 -74 24 -77 -18
-42 -21 17 -40 31 -44 31 -3 0 9 -37 27 -82 31 -78 54 -181 54 -238 l-1 -25
-21 30 c-33 45 -110 118 -149 139 -31 18 -31 16 11 -21 25 -23 58 -63 72 -89
44 -82 80 -226 87 -349 l6 -110 14 65 c7 36 24 115 38 175 31 139 39 276 21
377 -15 83 -16 83 45 35 l38 -29 -6 28 c-7 29 -71 237 -82 263 -3 8 -1 11 6 7
7 -5 9 -1 5 8 -3 9 -11 13 -17 9 -5 -3 -7 -1 -4 4 4 6 -5 43 -18 83 -14 41
-23 76 -20 78 7 7 4 11 69 -100 103 -173 151 -303 197 -538 l19 -95 -5 115
c-8 198 -65 370 -182 552 -93 145 -92 148 13 50 54 -50 153 -135 219 -188
l120 -97 3 43 c3 34 -1 45 -18 57 -50 35 -368 293 -400 325 -20 19 -59 70 -88
112 l-53 78 37 -4 37 -4 -49 40 c-27 23 -84 78 -128 123 -43 45 -100 99 -127
120 -27 20 -49 44 -49 53 0 30 -52 170 -71 192 l-20 23 16 -32 c8 -18 15 -34
15 -36 0 -7 -170 3 -194 13 -14 5 -26 8 -26 6 0 -2 45 -38 100 -81 55 -43 98
-80 96 -83 -9 -8 -175 91 -223 133 -30 25 -55 60 -73 101 -32 69 -61 95 -138
117 l-53 16 21 -29z"/>
<path d="M3698 4033 c11 -16 39 -46 63 -68 34 -32 30 -26 -16 28 -61 70 -81
87 -47 40z"/>
<path d="M3025 4041 c-74 -18 -73 -25 4 -71 40 -23 94 -51 121 -62 49 -20 49
-21 64 -89 23 -99 20 -183 -8 -251 l-23 -57 46 39 c59 50 117 70 195 68 l61
-1 -67 -6 c-36 -3 -69 -8 -71 -11 -3 -3 35 -6 85 -7 121 -3 158 16 158 81 0
19 -4 21 -38 18 -21 -2 -56 3 -76 12 -73 30 -100 23 -173 -46 -52 -50 -62 -57
-50 -33 25 49 38 113 31 150 -3 19 -24 54 -45 79 -53 60 -54 87 -2 46 33 -26
39 -20 19 19 -26 49 -148 134 -189 130 -7 -1 -26 -4 -42 -8z"/>
<path d="M2140 4013 c-158 -119 -218 -237 -176 -347 9 -24 24 -50 33 -58 15
-11 16 -11 10 6 -19 49 -27 113 -21 155 12 83 31 103 120 130 64 19 204 96
204 111 0 12 -59 30 -99 30 -23 0 -48 -10 -71 -27z"/>
<path d="M2505 3920 c-75 -59 -103 -94 -119 -152 -36 -131 -29 -141 28 -40 21
37 60 94 86 127 51 66 75 105 63 104 -4 0 -30 -18 -58 -39z"/>
<path d="M1419 3923 c-13 -16 -12 -17 4 -4 16 13 21 21 13 21 -2 0 -10 -8 -17
-17z"/>
<path d="M2145 3892 c-69 -29 -82 -40 -105 -87 -18 -38 -21 -59 -19 -124 3
-64 9 -84 32 -119 37 -56 50 -53 21 5 -44 86 -27 145 76 259 80 88 78 101 -5
66z"/>
<path d="M2943 3864 c3 -27 22 -100 41 -162 20 -63 36 -129 36 -149 0 -21 -15
-64 -40 -110 -22 -42 -40 -83 -40 -92 1 -9 7 -2 15 16 7 17 39 59 70 93 57 62
57 63 52 111 -11 89 -98 316 -128 335 -9 5 -11 -6 -6 -42z"/>
<path d="M3107 3858 c27 -29 62 -71 77 -93 29 -44 32 -33 13 50 -11 45 -17 52
-57 73 -24 12 -53 22 -64 22 -16 0 -10 -10 31 -52z"/>
<path d="M2329 3884 c-53 -63 -128 -244 -136 -331 l-6 -61 53 -56 c30 -32 58
-73 66 -98 l14 -43 -4 51 c-3 34 -15 68 -37 102 -29 48 -31 56 -26 114 3 39
23 110 52 187 47 126 55 171 24 135z"/>
<path d="M2783 3818 c3 -10 37 -91 74 -180 54 -131 69 -157 71 -133 3 35 -48
190 -83 250 -26 45 -73 93 -62 63z"/>
<path d="M2460 3710 c-6 -11 -8 -20 -6 -20 3 0 10 9 16 20 6 11 8 20 6 20 -3
0 -10 -9 -16 -20z"/>
<path d="M1790 3700 c-32 -13 -52 -15 -75 -9 -16 5 -31 9 -32 9 -1 0 1 -17 4
-37 9 -60 23 -68 116 -69 45 0 98 -3 117 -7 l35 -7 -40 20 c-27 13 -33 20 -20
20 21 0 54 -15 114 -52 50 -32 29 -4 -62 80 -43 40 -86 72 -95 71 -9 -1 -37
-9 -62 -19z"/>
<path d="M3973 3670 c66 -100 137 -330 156 -510 14 -124 2 -232 -38 -347 -25
-74 -33 -116 -40 -221 -9 -137 -14 -157 -38 -147 -12 4 -13 2 -5 -8 26 -31
-67 -155 -145 -192 -32 -16 -52 -17 -153 -10 -154 11 -211 12 -236 2 -20 -7
-22 -3 -28 45 -8 59 -46 132 -77 149 -18 9 -20 8 -15 -9 11 -35 -32 -72 -150
-127 -96 -45 -234 -127 -234 -140 0 -5 59 11 155 42 142 46 219 94 253 158 10
19 11 18 17 -8 20 -77 -30 -149 -129 -186 -29 -11 -125 -29 -212 -41 -87 -12
-160 -23 -162 -25 -8 -8 172 -17 273 -13 122 4 154 14 224 74 30 26 41 31 41
19 0 -56 -77 -125 -163 -146 -60 -14 -189 -17 -327 -7 l-95 7 100 -31 c84 -26
119 -31 220 -33 78 -2 120 -6 123 -14 2 -6 9 -11 16 -11 32 0 260 -186 377
-307 48 -50 104 -116 125 -147 37 -56 39 -57 73 -51 20 4 38 11 40 17 3 10
103 60 108 54 9 -9 -36 -100 -89 -180 -62 -95 -41 -86 38 16 52 67 83 131 84
171 0 20 4 26 13 21 6 -4 -6 12 -28 35 -21 22 -41 41 -44 41 -3 0 11 -17 30
-37 37 -40 17 -29 -44 25 -32 28 -192 135 -247 167 -43 24 16 -21 104 -78 l98
-65 -26 -17 c-14 -9 -36 -18 -50 -19 -23 -1 -23 -2 16 -59 73 -107 32 -70 -55
50 -97 134 -153 195 -220 242 -69 47 -57 23 15 -28 34 -25 91 -83 129 -130
l68 -86 -31 -3 c-28 -3 -43 9 -147 112 -64 63 -145 138 -181 166 -78 62 -91
80 -57 80 18 0 27 7 31 26 9 33 4 37 -59 63 -88 35 -31 22 76 -18 194 -72 412
-195 529 -300 45 -41 46 -49 5 -65 -7 -2 -7 -7 0 -14 8 -8 18 -7 39 3 32 17
45 13 27 -9 -9 -11 -1 -22 41 -59 54 -46 68 -50 68 -17 0 54 -303 281 -522
392 -101 50 -105 54 -82 65 14 6 24 7 24 1 0 -5 4 -7 9 -3 5 3 44 -10 86 -29
41 -20 73 -31 70 -26 -4 6 -3 10 0 10 11 0 135 -70 195 -110 107 -72 210 -130
228 -130 9 0 28 -7 40 -16 l23 -16 -32 -58 c-29 -52 -31 -60 -20 -88 l13 -30
34 23 c42 29 95 71 136 108 l31 28 -7 -53 c-5 -38 -3 -49 4 -38 17 25 49 141
57 205 6 52 8 56 14 30 4 -16 7 -58 8 -92 1 -54 -4 -71 -40 -140 -23 -43 -69
-121 -104 -173 -34 -52 -60 -101 -57 -109 7 -17 30 10 107 126 171 258 262
538 236 727 -12 85 -53 222 -76 251 -14 19 -15 18 -5 -8 13 -37 13 -146 -1
-282 -13 -129 -28 -170 -29 -79 0 60 -32 188 -49 198 -4 3 -3 -18 4 -47 7 -29
16 -89 20 -133 l7 -79 -42 62 c-48 73 -64 86 -48 42 12 -35 6 -152 -13 -238
l-11 -53 -37 35 c-20 20 -73 58 -118 86 -96 59 -379 201 -401 201 -8 0 -13 2
-10 5 3 3 43 -4 89 -15 96 -23 99 -23 99 -11 0 12 -108 59 -166 71 -37 8 -58
8 -80 -1 l-29 -11 40 -14 40 -13 -40 7 c-22 3 -52 6 -67 4 -16 -1 -45 -3 -65
-4 -21 -1 -53 5 -72 15 -19 9 -44 17 -57 17 -13 0 -25 4 -28 9 -6 10 99 21
203 21 41 0 72 2 70 5 -9 9 -150 21 -155 13 -8 -13 -96 -9 -123 6 -23 13 -23
13 18 20 23 3 117 3 209 -1 166 -6 167 -7 130 -23 l-38 -16 58 -18 c69 -22
224 -98 271 -134 40 -30 37 -23 -37 76 -29 41 -52 76 -49 78 2 2 29 -9 60 -24
32 -16 57 -28 57 -26 0 2 -9 25 -19 52 l-20 49 89 -47 88 -47 -25 65 -24 65
53 -45 53 -45 -42 86 c-50 102 -63 142 -42 124 8 -6 31 -18 51 -26 l38 -16
-20 39 c-24 47 -26 61 -4 34 14 -18 15 -17 11 14 -2 17 -1 32 2 32 3 0 25 -11
49 -25 39 -22 54 -22 34 0 -5 6 -23 46 -41 91 -29 74 -78 160 -86 152 -2 -2 3
-28 11 -58 8 -30 14 -65 14 -79 l0 -25 -32 30 c-18 17 -29 22 -25 13 3 -9 8
-38 12 -65 6 -49 6 -49 -12 -25 -49 68 -48 68 -46 -6 2 -55 1 -63 -8 -43 -10
24 -11 23 -29 -29 -24 -66 -30 -73 -31 -35 -1 30 -3 26 -15 -41 -6 -37 -8 -38
-14 -15 -5 14 -8 63 -9 110 0 79 2 88 29 124 16 21 35 63 41 93 l12 54 23 -28
c28 -34 28 -35 5 55 -11 39 -15 72 -10 72 21 0 66 -30 104 -69 21 -23 43 -41
49 -41 5 0 -18 29 -52 63 -42 44 -62 74 -66 98 -9 53 -12 398 -3 392 4 -2 7 7
7 22 l0 26 33 -17 c17 -9 75 -46 127 -82 116 -79 84 -38 -47 59 -82 61 -113
92 -113 114 0 4 7 5 15 1 24 -9 17 8 -15 39 -33 31 -31 45 6 45 13 0 24 5 24
10 0 6 -4 10 -8 10 -5 0 -30 17 -57 37 -45 36 -46 38 -24 44 23 5 22 7 -16 27
-29 15 -35 21 -20 22 11 1 -19 21 -69 46 -50 24 -101 54 -114 67 -19 17 -17
10 11 -33z m-321 -1595 c37 -14 82 -32 99 -40 16 -9 35 -13 42 -9 7 4 9 4 5
-1 -4 -4 36 -35 90 -67 115 -70 191 -126 249 -181 24 -23 45 -38 48 -35 14 14
-212 187 -319 244 -33 19 -53 34 -42 34 31 0 137 -30 162 -47 25 -16 33 -6 12
15 -23 23 6 12 111 -44 113 -60 179 -104 224 -151 25 -27 27 -33 18 -69 l-9
-39 -1 49 -1 50 -31 -49 -31 -49 27 -24 c51 -44 18 -32 -51 18 -38 27 -77 50
-88 50 -23 0 -119 52 -231 125 -103 67 -183 108 -196 99 -5 -3 -16 -1 -23 5
-7 6 -70 35 -140 64 -69 30 -130 58 -134 62 -12 13 60 -6 123 -32 87 -37 105
-43 105 -38 0 3 -31 21 -70 40 -38 19 -70 37 -70 40 0 12 59 3 122 -20z m-128
-44 c38 -17 38 -17 14 -28 -29 -13 -91 12 -96 40 -4 21 8 19 82 -12z m986
-265 c-7 -39 -15 -65 -17 -58 -3 7 1 45 8 85 6 39 14 66 17 58 2 -8 -1 -46 -8
-85z m-250 -99 c0 -2 -10 -12 -21 -23 -22 -19 -22 -19 -8 4 12 19 29 30 29 19z"/>
<path d="M2400 3603 c-57 -102 -61 -142 -24 -189 51 -64 64 -88 64 -122 0 -37
-84 -262 -161 -432 -62 -140 -73 -194 -14 -70 55 113 67 142 140 327 74 192
73 230 -11 323 l-36 39 45 101 c25 55 44 100 42 100 -2 0 -22 -35 -45 -77z"/>
<path d="M2947 3603 c16 -59 33 -90 33 -62 0 22 -30 108 -40 114 -5 3 -1 -21
7 -52z"/>
<path d="M2312 3601 c-14 -46 -15 -81 -3 -81 10 0 27 107 19 116 -3 2 -10 -13
-16 -35z"/>
<path d="M3885 3578 c-4 -18 -16 -50 -26 -70 l-19 -37 30 -63 c36 -79 67 -229
81 -395 5 -70 12 -129 14 -132 3 -2 5 25 5 60 0 35 7 134 17 219 15 145 15
160 -1 231 -15 67 -77 219 -90 219 -2 0 -8 -15 -11 -32z"/>
<path d="M3716 3545 c-28 -21 -56 -67 -56 -92 0 -14 16 -35 44 -57 23 -20 45
-36 48 -36 3 0 13 18 23 40 15 34 16 46 6 79 -6 22 -19 48 -29 60 -15 18 -19
19 -36 6z"/>
<path d="M3785 3301 c-3 -10 1 -93 10 -184 15 -172 13 -241 -13 -292 -20 -40
-29 -45 -87 -45 -58 0 -90 -18 -99 -56 -7 -26 -7 -26 -37 20 -31 45 -139 150
-147 141 -2 -2 21 -40 52 -84 31 -44 66 -101 77 -126 11 -25 31 -56 45 -70
l24 -24 -6 37 c-8 55 12 77 70 74 25 -1 62 -8 82 -17 20 -8 40 -15 45 -15 5 0
23 21 40 48 26 41 30 53 24 92 -3 25 -10 131 -14 235 -6 162 -10 197 -29 238
-23 52 -28 56 -37 28z"/>
<path d="M1610 3246 c-16 -36 -21 -60 -17 -89 9 -64 17 -68 153 -65 l119 3
-55 17 c-57 18 -142 66 -156 90 -5 7 -11 31 -15 53 l-6 40 -23 -49z"/>
<path d="M3557 3238 c-34 -44 -109 -85 -178 -97 l-54 -9 61 -1 c76 -1 153 34
184 85 30 48 20 65 -13 22z"/>
<path d="M1700 3248 c0 -22 60 -74 110 -97 25 -12 65 -20 90 -20 l45 1 -50 12
c-64 16 -107 38 -156 83 -24 21 -39 30 -39 21z"/>
<path d="M2851 3215 c-3 -38 92 -276 184 -465 56 -114 51 -76 -7 53 -72 163
-135 311 -156 367 -11 30 -21 50 -21 45z"/>
<path d="M1326 3085 c8 -176 24 -233 19 -70 -2 72 -8 144 -14 160 -8 23 -10 2
-5 -90z"/>
<path d="M4038 3125 c-4 -11 -16 -69 -28 -130 -28 -150 -66 -297 -91 -356 -32
-73 -68 -99 -137 -99 -124 -1 -174 -31 -214 -129 l-23 -56 -6 66 c-9 86 -21
106 -74 129 -42 18 -48 26 -104 137 -69 137 -115 218 -106 184 19 -64 142
-297 182 -344 80 -93 104 -161 78 -222 -38 -93 24 -33 80 76 42 82 65 94 165
84 38 -4 73 -11 76 -17 8 -13 -70 -86 -157 -147 l-72 -51 39 0 c47 0 184 78
269 153 29 26 60 47 67 47 10 0 10 2 0 8 -7 5 -18 34 -24 65 -13 63 -16 51 56
296 33 113 36 135 34 225 -2 56 -6 92 -10 81z"/>
<path d="M1539 3072 c13 -44 37 -85 65 -111 22 -21 31 -23 77 -17 29 4 70 17
93 29 l41 21 -47 7 c-76 12 -150 39 -190 70 -46 36 -49 36 -39 1z"/>
<path d="M3662 3043 c-34 -20 -62 -27 -125 -32 l-82 -6 54 -23 c64 -28 152
-48 174 -39 24 9 49 53 51 89 1 42 -17 45 -72 11z"/>
<path d="M1773 2900 c-94 -60 -112 -77 -70 -64 32 10 185 123 167 124 -3 0
-47 -27 -97 -60z"/>
<path d="M3445 2910 c3 -5 35 -26 70 -45 50 -29 68 -34 82 -26 10 6 16 11 13
11 -3 0 -43 16 -88 35 -46 19 -80 30 -77 25z"/>
<path d="M1893 2813 c-42 -54 -94 -119 -115 -145 -21 -25 -42 -58 -48 -73 -12
-33 -13 -78 -1 -91 6 -5 4 -37 -4 -79 -12 -64 -12 -72 6 -107 25 -48 29 -48
16 0 -21 78 18 162 90 197 23 11 56 34 74 50 29 28 93 150 140 268 35 88 9 48
-58 -88 -68 -141 -99 -182 -142 -191 -14 -3 -45 -11 -68 -18 -55 -17 -56 -4
-7 55 20 24 49 70 66 103 17 34 55 96 85 139 30 42 52 77 49 77 -3 0 -40 -44
-83 -97z"/>
<path d="M3435 2730 c138 -218 179 -259 84 -85 -30 55 -72 113 -101 142 l-50
48 67 -105z"/>
<path d="M4946 2675 c15 -63 87 -254 128 -340 l44 -90 1 112 1 111 -50 74
c-28 40 -68 93 -90 118 -40 44 -41 44 -34 15z"/>
<path d="M4735 2580 c4 -14 11 -77 15 -140 l8 -115 -2 120 c-1 79 -6 127 -14
140 -13 19 -13 18 -7 -5z"/>
<path d="M2186 2504 c-19 -18 -13 -59 19 -129 32 -74 74 -116 183 -184 107
-67 126 -82 160 -125 35 -45 29 -87 -18 -130 -62 -56 -227 -133 -343 -160
l-29 -7 23 32 c13 19 47 43 86 61 34 17 65 33 67 37 5 7 -69 5 -169 -6 l-50
-5 19 21 20 22 -42 -18 c-23 -10 -69 -38 -102 -62 -75 -55 -254 -239 -339
-349 -56 -72 -66 -81 -74 -65 -5 10 -19 28 -29 40 -20 21 -20 22 8 75 17 30
70 94 124 147 99 98 103 110 12 32 -111 -96 -193 -227 -200 -322 -10 -139 135
-458 311 -682 41 -53 46 -56 52 -37 6 18 16 5 55 -76 26 -55 85 -157 129 -229
75 -118 157 -275 175 -332 11 -35 23 -28 52 30 43 84 79 124 453 495 235 235
414 403 531 499 170 142 300 260 300 274 0 7 -157 -77 -274 -146 l-49 -29 41
61 c66 97 103 120 240 148 30 6 33 10 27 32 -22 88 -151 244 -303 365 -90 71
-79 77 13 8 37 -28 70 -52 73 -53 4 -1 17 6 30 15 l24 16 -99 69 c-113 80
-127 87 -143 67 -15 -17 -56 -19 -63 -1 -4 10 -6 10 -6 0 -1 -17 -40 -16 -146
2 -48 9 -90 13 -92 11 -3 -3 30 -22 73 -43 70 -34 127 -84 113 -98 -8 -8 -186
53 -254 87 -74 37 -135 94 -135 126 0 60 48 109 215 219 167 111 225 180 225
268 0 66 -36 57 -93 -26 -15 -20 -18 -21 -66 -8 -45 11 -61 10 -145 -9 -121
-28 -216 -28 -318 0 -69 19 -86 20 -124 10 -61 -16 -60 -17 -85 28 -26 46 -43
55 -63 34z m293 -109 c108 -32 151 -31 284 2 99 25 111 26 135 12 56 -31 32
-89 -27 -66 -28 10 -37 9 -76 -12 -59 -31 -97 -91 -103 -159 -4 -45 -8 -55
-29 -63 -40 -15 -43 -12 -44 54 l-2 62 -9 -63 c-8 -50 -13 -62 -25 -58 -8 3
-18 6 -22 6 -5 0 -11 21 -15 47 -16 115 -131 213 -206 173 -23 -12 -43 9 -38
42 3 24 40 48 73 48 11 0 58 -12 104 -25z m620 -594 c32 -40 91 -156 91 -179
0 -9 7 -11 23 -6 45 14 98 45 92 55 -4 5 -42 35 -86 65 -79 56 -112 87 -68 64
13 -7 57 -37 97 -67 40 -29 77 -51 83 -47 11 6 140 -121 159 -157 8 -14 -3
-24 -63 -59 -70 -42 -137 -86 -205 -138 l-33 -25 24 54 c13 30 35 72 49 94 62
101 45 84 -52 -50 -39 -55 -78 -115 -85 -132 -8 -18 -15 -33 -17 -33 -2 0 -2
20 0 45 2 24 8 43 14 42 5 -1 23 30 39 68 55 134 38 233 -66 381 -48 70 -46
88 4 25z m-988 -16 c-39 -45 -84 -133 -106 -210 -25 -85 -16 -151 36 -252 23
-46 44 -83 48 -83 8 1 81 163 81 180 0 10 -3 10 -15 0 -36 -30 -21 1 25 54 59
67 64 80 15 37 -20 -17 -41 -31 -47 -31 -10 0 -7 34 8 90 7 24 6 24 -12 9 -36
-30 -44 -31 -44 -6 0 32 60 71 190 126 52 21 133 58 179 80 110 53 142 53 252
0 46 -23 128 -58 182 -79 54 -21 113 -50 132 -65 32 -24 35 -31 35 -77 l0 -51
-21 27 c-30 38 -39 32 -23 -14 9 -26 12 -60 8 -93 -4 -41 0 -66 20 -120 14
-37 26 -79 26 -92 0 -14 3 -25 8 -25 8 0 76 38 160 88 l53 32 -28 -52 c-16
-30 -66 -89 -115 -137 -59 -57 -88 -92 -88 -107 0 -13 -4 -25 -9 -28 -5 -4 -7
2 -4 13 7 29 -44 208 -83 291 l-36 75 -19 -89 c-19 -90 -29 -116 -29 -80 -1
10 -12 39 -25 64 -21 39 -24 42 -25 20 -1 -14 -10 -47 -21 -75 l-19 -50 5 58
c6 71 -10 68 -19 -3 -7 -53 -24 -100 -36 -100 -4 0 -10 12 -13 28 -11 51 -97
171 -97 135 0 -5 -12 -26 -26 -48 l-25 -40 4 53 4 53 -43 -42 c-24 -24 -52
-62 -61 -86 -10 -24 -21 -43 -24 -43 -8 0 -78 151 -95 205 -11 36 -13 37 -13
12 -2 -52 94 -236 142 -276 15 -12 17 -11 17 7 0 46 9 52 75 52 56 0 64 3 79
25 9 14 23 25 31 25 20 0 39 -74 25 -99 -19 -36 -10 -34 20 4 16 20 32 46 36
57 3 11 8 17 11 15 2 -3 -5 -25 -17 -49 l-21 -43 28 32 c27 31 31 33 79 27 37
-5 59 -2 82 10 37 19 72 21 72 4 -1 -21 -37 -95 -71 -145 -48 -70 -158 -182
-291 -295 -65 -55 -140 -128 -166 -161 -87 -111 -165 -256 -210 -391 l-29 -83
-12 61 c-17 85 -70 215 -162 396 -83 164 -119 258 -119 312 -1 31 -1 32 -15
14 -8 -11 -15 -28 -15 -38 0 -35 -16 -17 -55 60 l-39 77 -10 -48 -11 -48 -72
118 c-79 131 -103 178 -133 253 l-20 51 57 -39 c32 -21 92 -57 134 -79 l76
-40 -39 76 c-45 89 -62 109 -145 175 l-62 48 58 77 c69 90 191 222 233 252 29
21 52 19 30 -3 -7 -7 -12 -21 -12 -32 0 -15 18 -2 74 52 94 91 113 95 23 4
-37 -37 -67 -73 -67 -81 0 -7 11 -26 25 -43 22 -26 26 -28 31 -11 15 48 76
161 100 186 38 41 43 25 5 -18z m-264 -1047 c-3 -8 -6 -5 -6 6 -1 11 2 17 5
13 3 -3 4 -12 1 -19z"/>
<path d="M2640 1753 c0 -5 12 -29 28 -54 15 -24 36 -61 46 -82 11 -20 23 -37
29 -37 5 0 0 16 -11 35 l-21 34 25 -9 c13 -5 24 -7 24 -3 0 7 -101 116 -112
121 -5 2 -8 0 -8 -5z"/>
<path d="M2455 1730 c-20 -13 -24 -20 -14 -20 18 0 71 39 54 40 -5 0 -23 -9
-40 -20z"/>
<path d="M2470 1695 c-40 -41 -49 -55 -36 -55 20 0 106 80 106 99 0 21 -16 11
-70 -44z"/>
<path d="M2560 1702 c-6 -26 -20 -67 -31 -92 -11 -25 -22 -65 -25 -90 l-5 -45
27 50 c15 27 34 87 43 133 18 89 11 124 -9 44z"/>
<path d="M2614 1695 c3 -22 8 -62 11 -90 l5 -50 -14 40 c-10 30 -14 34 -15 17
-1 -13 10 -44 24 -70 14 -26 25 -54 26 -62 1 -8 5 5 10 29 6 33 4 63 -12 125
-23 89 -45 127 -35 61z"/>
<path d="M2365 1679 c-20 -18 -41 -41 -47 -52 -6 -11 15 2 46 28 31 27 56 50
56 52 0 11 -24 -2 -55 -28z"/>
<path d="M2810 1686 c14 -16 38 -37 54 -48 l28 -21 -11 21 c-10 19 -43 46 -81
67 -8 5 -4 -4 10 -19z"/>
<path d="M2465 1610 c-10 -11 -16 -22 -13 -25 3 -3 13 4 23 15 10 11 16 22 13
25 -3 3 -13 -4 -23 -15z"/>
<path d="M2691 1548 c32 -82 98 -215 99 -198 0 8 -6 26 -13 41 -8 14 -21 47
-30 73 -16 47 -63 136 -72 136 -3 0 5 -23 16 -52z"/>
<path d="M2454 1503 c-17 -36 -28 -78 -30 -113 -2 -30 -1 -46 2 -35 3 11 19
60 36 108 17 49 28 90 25 93 -3 3 -17 -21 -33 -53z"/>
<path d="M2931 1498 c21 -38 29 -46 29 -29 0 6 -11 23 -25 38 l-26 28 22 -37z"/>
<path d="M1847 1491 c-7 -33 17 -170 34 -204 6 -9 14 -15 19 -12 5 3 11 -3 15
-12 3 -10 21 -36 40 -58 l35 -40 -36 90 c-20 49 -45 107 -55 127 -11 21 -25
61 -33 90 -13 51 -13 51 -19 19z"/>
<path d="M2343 1487 c-20 -29 -47 -107 -37 -107 2 0 19 32 37 70 36 75 36 90
0 37z"/>
<path d="M2782 1479 c3 -8 13 -38 23 -67 9 -29 19 -51 22 -48 7 7 -28 115 -40
123 -6 4 -8 0 -5 -8z"/>
<path d="M1700 1430 c14 -11 34 -25 45 -31 14 -7 12 -4 -5 11 -14 11 -34 25
-45 31 -14 7 -12 4 5 -11z"/>
<path d="M1668 1425 c6 -11 27 -36 48 -55 36 -33 36 -33 -6 15 -24 28 -46 52
-48 55 -3 3 0 -4 6 -15z"/>
<path d="M2933 1392 c27 -28 76 -128 97 -199 9 -30 17 -40 27 -36 12 5 14 17
8 57 -8 65 -42 123 -99 169 -52 44 -71 49 -33 9z"/>
<path d="M2183 1377 c-31 -33 -72 -114 -78 -155 -3 -21 -15 -75 -26 -120 -23
-93 -20 -115 5 -51 10 23 23 51 31 62 12 17 15 14 44 -45 17 -34 64 -105 105
-156 40 -52 86 -118 101 -148 25 -49 27 -61 23 -148 -3 -104 5 -110 29 -20 30
111 18 344 -18 344 -5 0 -9 -26 -9 -57 l-1 -58 -15 30 c-33 63 -97 155 -104
150 -14 -9 -18 33 -9 117 9 85 2 215 -12 223 -4 3 -33 -35 -64 -85 -32 -49
-59 -90 -61 -90 -3 0 11 31 30 68 33 65 61 150 53 158 -2 2 -13 -6 -24 -19z"/>
<path d="M2321 1256 c-26 -41 -51 -111 -51 -141 l0 -22 38 18 c66 32 86 33
120 5 28 -25 27 -21 -19 55 -27 45 -49 88 -49 95 0 27 -19 23 -39 -10z"/>
<path d="M3411 2494 c0 -11 3 -14 6 -6 3 7 2 16 -1 19 -3 4 -6 -2 -5 -13z"/>
<path d="M4947 2148 c-7 -166 -28 -294 -64 -393 -14 -39 -28 -109 -33 -160
-13 -141 -80 -346 -151 -461 l-30 -49 32 35 c51 58 157 222 190 296 67 147
126 457 115 599 -6 72 -41 263 -49 272 -2 2 -7 -61 -10 -139z"/>
<path d="M3593 2153 c9 -2 25 -2 35 0 9 3 1 5 -18 5 -19 0 -27 -2 -17 -5z"/>
<path d="M1755 2143 c-11 -2 -34 -11 -52 -19 -17 -8 -36 -14 -41 -14 -6 0 -14
-5 -18 -11 -4 -8 3 -9 22 -6 16 4 55 11 87 17 37 8 57 16 57 26 0 14 -16 16
-55 7z"/>
<path d="M3678 2143 c6 -2 18 -2 25 0 6 3 1 5 -13 5 -14 0 -19 -2 -12 -5z"/>
<path d="M1720 2084 c-41 -14 -62 -22 -45 -20 l30 4 -24 -19 c-13 -11 -35 -22
-50 -25 -70 -16 -127 -40 -222 -96 -388 -227 -435 -261 -474 -338 -31 -61 -31
-108 -1 -182 23 -57 127 -221 148 -234 6 -4 -8 21 -31 54 -22 34 -57 93 -77
132 -65 131 -72 248 -9 166 15 -20 32 -33 38 -29 5 3 7 1 3 -5 -6 -11 51 -93
70 -99 6 -2 16 15 23 38 11 38 14 40 29 25 16 -14 20 -10 52 52 79 156 419
420 585 456 28 6 31 4 33 -20 1 -15 4 -29 6 -31 2 -2 42 16 88 41 47 25 91 46
99 46 8 0 -19 -19 -60 -41 -133 -72 -303 -235 -370 -354 -12 -22 -14 -29 -4
-15 114 156 174 211 335 305 96 55 104 58 197 67 90 8 205 34 261 57 18 8 0 9
-70 4 -149 -11 -279 -7 -353 12 l-68 17 -67 -40 c-37 -21 -114 -65 -171 -96
-171 -94 -305 -201 -388 -308 -44 -57 -44 -58 -71 -43 -49 26 -126 101 -120
116 6 14 115 83 322 204 73 43 117 63 130 59 12 -3 41 2 66 11 l45 15 -25 -20
c-14 -11 -29 -20 -33 -20 -4 0 -2 -6 5 -14 13 -14 25 -9 174 79 29 16 66 38
83 47 28 16 30 19 19 43 -13 29 -11 29 -108 -1z m0 -63 c-62 -20 -98 -16 -59
5 13 7 44 13 69 13 l45 -1 -55 -17z m-721 -501 c1 -13 0 -13 -9 0 -5 8 -9 26
-9 40 l1 25 8 -25 c4 -14 8 -32 9 -40z"/>
<path d="M1568 2043 c6 -2 18 -2 25 0 6 3 1 5 -13 5 -14 0 -19 -2 -12 -5z"/>
<path d="M1667 1885 c-59 -35 -150 -96 -202 -135 -134 -101 -305 -278 -305
-315 0 -6 28 -30 63 -53 34 -23 73 -50 86 -59 l24 -17 -17 33 -17 33 23 -8
c13 -4 38 -10 56 -15 19 -4 35 -9 37 -11 2 -2 0 -21 -6 -43 -5 -22 -12 -103
-15 -180 -11 -234 16 -295 247 -555 118 -132 142 -163 264 -330 124 -171 123
-171 80 -75 -92 204 -159 302 -350 514 -162 179 -195 253 -194 441 1 69 4 148
7 175 6 45 9 50 30 47 22 -3 23 -1 21 50 -2 29 1 68 5 86 9 38 -5 43 -29 10
-14 -20 -18 -21 -28 -8 -22 28 -108 92 -114 86 -4 -4 -2 -29 3 -57 l11 -50
-44 43 c-23 23 -43 45 -43 49 0 15 114 121 202 190 51 39 146 103 211 141 64
38 117 71 117 74 0 10 -22 0 -123 -61z m-237 -420 c12 -19 12 -19 -6 -5 -39
29 -64 54 -64 63 0 12 54 -33 70 -58z"/>
<path d="M3238 1928 c-16 -5 -28 -13 -28 -16 0 -4 21 -20 48 -36 26 -17 57
-36 69 -44 20 -12 23 -11 38 17 l15 31 -47 30 c-53 32 -55 33 -95 18z"/>
<path d="M1910 1891 c-67 -42 -76 -55 -56 -86 9 -14 21 -25 26 -25 10 0 166
116 175 131 4 5 -16 9 -47 9 -41 0 -63 -7 -98 -29z"/>
<path d="M905 1719 l-58 -60 33 -34 33 -35 17 28 c10 15 31 40 48 56 l31 29
-20 38 c-11 22 -21 39 -23 39 -1 0 -29 -27 -61 -61z m9 -98 c-6 -6 -24 19 -24
34 1 6 7 1 15 -9 8 -11 12 -22 9 -25z"/>
<path d="M5050 1681 c0 -105 -106 -419 -205 -608 -29 -57 -50 -103 -47 -103
10 0 95 107 137 175 48 75 101 220 120 332 17 98 20 229 5 238 -6 4 -10 -10
-10 -34z"/>
<path d="M4104 1669 c14 -11 30 -35 35 -52 5 -18 10 -24 10 -13 1 26 -38 86
-56 86 -11 0 -7 -7 11 -21z"/>
<path d="M3615 1544 c-22 -8 -48 -18 -58 -21 -10 -3 -16 -11 -14 -17 2 -6 12
-34 21 -63 l17 -51 57 13 c31 7 85 16 120 20 34 4 62 9 62 12 0 9 -72 98 -86
106 -11 6 -14 0 -15 -25 -1 -34 -3 -32 -13 15 -7 32 -29 34 -91 11z"/>
<path d="M872 1463 c-6 -21 -14 -58 -17 -83 -4 -34 -1 -27 14 28 11 40 23 77
26 82 4 6 2 10 -3 10 -5 0 -14 -17 -20 -37z"/>
<path d="M1141 1404 c0 -11 3 -14 6 -6 3 7 2 16 -1 19 -3 4 -6 -2 -5 -13z"/>
<path d="M4156 1405 c4 -8 8 -15 10 -15 2 0 4 7 4 15 0 8 -4 15 -10 15 -5 0
-7 -7 -4 -15z"/>
<path d="M4084 1337 c-94 -138 -324 -347 -501 -456 -66 -41 -70 -51 -5 -15
218 125 572 445 572 517 0 36 -20 22 -66 -46z"/>
<path d="M1125 1315 c-4 -35 -3 -81 2 -102 7 -31 9 -19 9 65 1 56 0 102 -2
102 -1 0 -6 -29 -9 -65z"/>
<path d="M4130 1168 c-69 -66 -163 -145 -210 -176 -47 -30 -128 -83 -180 -118
-52 -34 -144 -107 -205 -161 -60 -55 -155 -133 -210 -175 -104 -79 -146 -118
-126 -118 10 0 107 57 194 114 l27 19 -32 -58 c-18 -31 -59 -89 -91 -128 -111
-136 -172 -222 -210 -295 -38 -71 -38 -72 -15 -72 34 0 223 195 287 296 56 89
115 149 202 207 74 49 80 57 125 162 44 102 98 165 255 300 206 178 279 248
279 267 0 10 4 17 9 14 11 -7 34 20 29 33 -1 5 -59 -44 -128 -111z"/>
<path d="M4594 1152 c-29 -48 -77 -123 -108 -167 -49 -69 -51 -74 -16 -35 22
25 58 70 79 100 39 55 105 179 99 185 -2 2 -26 -36 -54 -83z"/>
<path d="M3395 1108 c-515 -467 -690 -660 -827 -908 -40 -73 -90 -191 -84
-198 3 -2 19 25 37 59 57 115 188 304 300 436 42 49 210 223 513 531 94 94
168 172 166 172 -3 -1 -50 -42 -105 -92z"/>
<path d="M5076 1102 c-8 -64 -51 -192 -87 -264 -16 -32 -61 -106 -100 -165
-88 -133 -119 -199 -152 -328 -32 -125 -69 -315 -61 -315 6 0 84 159 129 264
24 55 88 189 143 296 112 222 132 284 139 448 6 116 0 148 -11 64z"/>
<path d="M4767 1128 c-19 -48 -219 -289 -281 -337 -61 -49 -33 -36 69 30 95
61 152 114 178 166 19 36 50 143 44 149 -2 3 -7 -1 -10 -8z"/>
<path d="M4790 883 c0 -5 -41 -81 -91 -169 -131 -228 -249 -469 -249 -508 0
-11 214 373 272 489 39 76 80 186 73 193 -3 3 -5 1 -5 -5z"/>
<path d="M4535 648 c-122 -129 -197 -229 -265 -353 -32 -59 -32 -60 -4 -25 60
74 130 143 196 191 38 28 81 72 99 99 28 44 112 220 104 220 -2 0 -60 -60
-130 -132z"/>
<path d="M4010 664 c-52 -41 -158 -121 -235 -177 -157 -114 -232 -184 -292
-272 -51 -77 -122 -215 -109 -215 2 0 38 40 80 89 42 49 104 112 139 140 35
27 76 69 92 91 16 23 87 93 159 157 161 143 244 223 257 246 5 9 8 17 7 16 -2
0 -46 -34 -98 -75z"/>
<path d="M3321 640 c-63 -33 -134 -75 -159 -95 -80 -62 -182 -195 -245 -320
-25 -51 -89 -225 -83 -225 3 0 20 28 40 63 52 95 114 174 195 252 40 39 92 97
116 130 43 60 173 191 230 233 17 12 28 21 25 21 -3 0 -56 -26 -119 -59z"/>
<path d="M4349 633 c-81 -134 -299 -362 -458 -480 -46 -35 -80 -63 -75 -63 19
0 159 82 217 127 131 101 215 201 297 356 51 96 62 131 19 60z"/>
</g>
</svg>